<?xml version="1.0" encoding="UTF-8"?>
<svg width="156px" height="145px" viewBox="0 0 156 145" version="1.1" xmlns="http://www.w3.org/2000/svg" xmlns:xlink="http://www.w3.org/1999/xlink">
    <!-- Generator: sketchtool 52.5 (67469) - http://www.bohemiancoding.com/sketch -->
    <title>16A582D3-0187-453A-AAF7-AD05E53F61EF</title>
    <desc>Created with sketchtool.</desc>
    <g id="XX.00.-Landing---Index-Investing" stroke="none" stroke-width="1" fill="none" fill-rule="evenodd">
        <g id="XX.00.-Landing---Index-Investing-v3.4" transform="translate(-40.000000, -8.000000)">
            <g id="Header" transform="translate(19.000000, 8.000000)">
                <g id="lt-logo-gold-black" transform="translate(21.000000, 0.000000)">
                    <path d="M121.287484,72.2402609 C121.934129,71.9401739 122.636129,71.6060435 123.31171,71.2857826 L123.31171,20.2470435 L77.8616129,20.2470435 L76.9331613,22.3463913 L121.287484,22.3463913 L121.287484,72.2402609" id="Fill-1" fill="#000000"></path>
                    <polyline id="Fill-2" fill="#000000" points="121.287484 78.2583913 121.287484 87.4413043 16.7737742 87.4413043 16.7737742 79.7096522 15.0049355 80.5758696 15.0049355 87.4413043 14.957129 87.4413043 14.957129 142.295435 15.0049355 142.295435 123.31171 142.242478 123.31171 77.3669565 121.287484 78.2583913"></polyline>
                    <path d="M125.334677,76.5915217 L125.334677,144.590217 L12.9756774,144.590217 L12.9756774,81.8316957 M78.9410323,17.882913 L125.334677,17.882913 L125.334677,70.3754348 M12.9756774,75.7366522 L12.9756774,17.882913 L72.8280968,17.882913" id="Stroke-3" stroke="#000000" stroke-width="0.819"></path>
                    <polyline id="Fill-5" fill="#000000" points="16.7737742 22.3463913 69.7584194 22.3463913 71.3033226 20.2470435 15.0049355 20.2470435 15.0049355 74.5627826 16.7737742 73.475913 16.7737742 22.3463913"></polyline>
                    <g id="Group-8"></g>
                    <path d="M85.4175484,1.77908696 C85.6842581,1.90391304 85.6389677,2.25947826 85.878,2.38430435 C85.995,2.71843478 85.995,2.88991304 85.878,3.22908696 C85.8176129,3.39804348 85.7308065,3.50395652 85.7433871,3.73595652 C85.5961935,4.22895652 85.5030968,4.70808696 85.1319677,5.03086957 C85.1923548,5.07752174 85.2074516,5.10652174 85.2074516,5.18469565 C85.0149677,5.58565217 84.9130645,6.00173913 84.5293548,6.29426087 L84.5293548,6.50986957 C84.4362581,6.69647826 84.180871,6.86417391 84.1670323,7.11130435 C84.065129,7.11130435 84.0512903,7.2336087 84.065129,7.32565217 C83.9154194,7.32565217 84.0512903,7.49713043 83.9569355,7.56143478 C83.6965161,8.0203913 83.3216129,8.40621739 83.1731613,8.95973913 C83.0674839,9.05304348 82.8460645,9.1476087 82.8926129,9.36195652 C82.6259032,9.69986957 82.4170645,10.1613478 82.1025484,10.4715217 C81.8647742,10.7287391 81.881129,11.1637391 81.4949032,11.2860435 C81.3766452,11.5785652 81.1678065,11.7172609 81.1376129,12.0589565 C80.8721613,12.0589565 80.9740645,12.3186957 80.8583226,12.4750435 C80.7526452,12.5796957 80.6180323,12.6742609 80.652,12.8709565 C80.6067097,12.8608696 80.5589032,12.9188696 80.574,12.952913 C80.6180323,13.1067391 80.4821613,13.0298261 80.4293226,13.1067391 C80.067,13.445913 79.9650968,14.0145652 79.7864516,14.4621739 C79.1788065,15.4620435 78.8529677,16.6346522 78.215129,17.6496522 L78.215129,17.7908696 C78.0943548,17.9257826 78.0603871,18.251087 77.8993548,18.3923043 C77.8477742,18.433913 77.8691613,18.5284783 77.8603548,18.6053913 C77.7936774,18.5751304 77.7194516,18.6495217 77.7521613,18.7113043 C77.3546129,19.3896522 77.1294194,20.2218261 76.7280968,20.9039565 C76.5922258,21.333913 76.4450323,21.7487391 76.146871,22.0425217 C76.0902581,22.3501739 75.8474516,22.5935217 75.7920968,22.9036957 C75.405871,22.9036957 75.6147097,23.4887391 75.405871,23.6438261 C75.3593226,24.1506957 74.7680323,24.1973478 74.9441613,24.813913 C74.8082903,25.1858696 74.4572903,25.443087 74.4396774,25.8957391 C74.393129,26.1718696 74.2446774,26.4164783 74.1566129,26.6648696 C74.022,27.0481739 73.6672258,27.3886087 73.6546452,27.7731739 C73.7401935,28.1426087 73.2822581,28.2964348 73.3703226,28.7755652 C73.0155484,29.0340435 73.1010968,29.667 72.8369032,29.9897826 C72.7601613,30.1461304 72.7287097,30.4537826 72.5525806,30.4815217 C72.5387419,31.1018696 72.1952903,31.5456957 72.0204194,32.0702174 C71.9537419,32.0866087 71.9122258,32.103 71.8732258,32.1471304 C71.9537419,32.469913 71.7524516,32.933913 71.622871,33.2894783 C71.487,33.2894783 71.5712903,33.4407826 71.5599677,33.5076087 C71.4517742,33.766087 71.2630645,34.0876087 71.5599677,34.2931304 L71.7939677,34.4280435 C72.6117097,34.5062174 73.6055806,34.4595652 74.4396774,34.4734348 C74.5440968,34.5995217 74.9441613,34.3233913 75.0045484,34.6133913 C75.27,34.6600435 75.3907742,34.5364783 75.5845161,34.4734348 C76.2072581,34.6600435 77.1407419,34.7369565 77.8301613,34.5503478 L78.0050323,34.5843913 L78.0050323,34.5503478 C78.0603871,34.6133913 78.195,34.6297826 78.3384194,34.6133913 C78.6290323,34.520087 78.7938387,34.520087 79.0743871,34.4734348 L79.8883548,34.4734348 L79.8883548,34.5062174 L80.3966129,34.5503478 L80.3966129,34.5843913 C80.886,34.6600435 81.3024194,34.5995217 81.7477742,34.5503478 C81.7653871,34.520087 81.7918065,34.5062174 81.7779677,34.4734348 C81.8521935,34.5364783 81.9868065,34.5503478 82.1025484,34.5503478 C82.076129,34.5364783 82.3830968,34.5062174 82.4309032,34.6133913 C83.6197742,34.6297826 85.2678387,34.5995217 86.5913226,34.6600435 C86.5749677,34.6915652 86.6328387,34.7495652 86.6630323,34.7369565 L86.8857097,34.6600435 L86.8857097,34.6915652 C87.4858065,34.8277391 88.0896774,34.7369565 88.6985806,34.7672174 C88.6822258,34.8277391 88.743871,34.8441304 88.7753226,34.8756522 L89.4106452,34.8756522 C89.3968065,34.9197826 89.4282581,34.9374348 89.4420968,34.9513043 C89.7226452,34.8756522 89.9780323,34.7041739 90.303871,34.7672174 C90.2875161,34.8 90.3164516,34.8277391 90.3340645,34.8441304 C90.4045161,34.7041739 90.615871,34.8 90.7630645,34.7672174 C90.8536452,34.9197826 90.9266129,34.7041739 91.0914194,34.7369565 L91.6550323,34.7672174 L91.6550323,34.8 C91.9846452,34.8441304 92.3532581,34.8441304 92.6199677,34.9513043 C92.6665161,34.9374348 92.6199677,34.8441304 92.6941935,34.8756522 C92.8313226,34.7672174 92.8313226,35.1076522 92.9042903,34.8756522 C93.0992903,35.061 93.542129,34.8277391 93.7182581,35.061 C94.5812903,34.8756522 95.7387097,34.9676957 96.6155806,34.9828261 C96.8873226,34.8907826 97.1502581,34.9992174 97.4333226,35.061 C97.4157097,35.1215217 97.479871,35.1543043 97.5327097,35.1353913 L97.7163871,35.061 L97.7163871,35.1076522 L99.0071613,35.1681739 C99.0713226,35.3812609 99.1090645,35.09 99.2461935,35.1681739 L99.723,35.1681739 C99.7079032,35.2917391 99.8261613,35.2476087 99.9016452,35.2476087 C100.048839,35.2589565 100.150742,35.0761304 100.257677,35.2476087 C100.894258,35.2476087 101.610097,35.2476087 102.139742,35.398913 L102.814065,35.3207391 L102.814065,35.2917391 C103.004032,35.4291739 103.344968,35.3358696 103.597839,35.3535217 L103.597839,35.398913 C104.606806,35.4758261 105.825871,35.2766087 106.243548,36.2474783 C106.373129,36.2953913 106.568129,36.3092609 106.493903,36.5412609 C106.493903,36.7871304 106.746774,36.9094348 106.702742,37.2019565 C106.834839,37.420087 107.029839,37.6483043 106.951839,38.0177391 C106.653677,38.2207391 106.792065,38.7112174 106.550516,38.9432174 C106.356774,39.1588261 106.110194,39.3113913 105.739065,39.237 L105.739065,39.2042174 L104.459613,39.1260435 L104.459613,39.0970435 C103.970226,38.9608696 103.387742,39.0655217 102.928548,38.9432174 C102.855581,38.8511739 102.708387,38.8183913 102.573774,38.8360435 L101.35471,38.8360435 L101.35471,38.8045217 C100.747065,38.7591304 100.094129,38.7591304 99.5456129,38.6494348 C99.2461935,38.6796957 98.9958387,38.5725217 98.7882581,38.7263478 L98.6800645,38.7263478 C98.5454516,38.4678696 98.28,38.7591304 98.0686452,38.6191739 L98.0686452,38.5725217 C97.4622581,38.5851304 96.7099355,38.4186957 95.9337097,38.4325652 C95.9462903,38.3871739 95.9186129,38.3733043 95.9047742,38.356913 C95.7689032,38.3871739 95.7387097,38.4502174 95.5776774,38.4325652 C95.5915161,38.3417826 95.4858387,38.356913 95.4418065,38.356913 C95.2782581,38.4186957 94.9524194,38.5447826 94.7913871,38.3871739 C94.164871,38.2043478 93.483,38.4502174 92.8313226,38.3115217 L92.8313226,38.28 C91.5971613,38.1110435 90.4787419,38.327913 89.2332581,38.2043478 L89.2332581,38.1690435 L88.3438065,38.1286957 L88.3438065,38.0946522 C86.0981613,37.9572174 84.2123226,38.0467391 81.9264194,38.0177391 C81.8207419,37.9256957 81.6609677,37.9118261 81.4949032,37.9408261 L81.3162581,38.0177391 L81.3162581,37.9874783 C80.8721613,37.8336522 80.6067097,38.1286957 80.145,38.0177391 L80.145,37.9874783 C77.3671935,37.9874783 74.5176774,37.8185217 71.8417742,37.9874783 L71.5889032,38.0177391 C71.6002258,37.9874783 71.5712903,37.9698261 71.5599677,37.9408261 C71.3788065,38.1690435 71.273129,37.8008696 71.0542258,37.9874783 C70.7585806,38.1286957 70.1471613,37.8336522 69.9836129,38.2472174 C69.8829677,38.5447826 69.6464516,38.8045217 69.6011613,39.1764783 C69.4514516,39.1764783 69.5684516,39.3277826 69.4803871,39.3908261 C69.3017419,39.9594783 69.1381935,40.5306522 69.0186774,41.1598261 C68.8903548,41.1774783 68.9897419,41.3792174 68.913,41.4523478 C68.9293548,41.8696957 68.6035161,42.010913 68.6349677,42.4522174 L68.5859032,42.4522174 C68.4148065,42.7207826 68.8085806,42.9187391 68.5280323,43.0889565 C68.3632258,43.5163913 68.2323871,43.9955217 68.2323871,44.5641739 C68.0826774,44.6284783 68.2625806,44.9663913 68.0310968,44.9663913 C68.0373871,45.646 67.7694194,46.3836087 67.5618387,47.048087 L67.5618387,47.6016087 L67.5203226,47.6016087 C67.7404839,48.2799565 66.9680323,48.3417391 67.236,48.9721739 L67.2825484,49.2193043 C67.178129,49.3416087 67.178129,49.6530435 67.1366129,49.7400435 L67.158,50.0048261 L67.1366129,50.0048261 L67.0548387,50.8231304 C67.0309355,50.8054783 67.0170968,50.837 66.9843871,50.8521304 C67.1227742,51.0072174 67.0309355,51.2984783 67.0548387,51.5153478 C66.9277742,51.5153478 67.0170968,51.6716957 66.9843871,51.7448261 C67.0170968,52.036087 66.6610645,52.2516957 66.8812258,52.5454783 C66.7340323,53.0876522 66.8673871,53.7016957 66.7805806,54.259 C66.6610645,54.3195217 66.7038387,54.4418261 66.6258387,54.5515217 L66.5994194,55.738 C66.3880645,55.8880435 66.6736452,56.0015217 66.6258387,56.2146087 C66.5402903,56.3696957 66.5264516,56.4907391 66.5264516,56.7391304 L66.6258387,56.9257391 L66.5994194,58.0617826 L66.5667097,58.0617826 C66.5264516,58.2307391 66.4836774,58.5383913 66.5994194,58.6468261 C66.4245484,58.7893043 66.6434516,58.9872609 66.5994194,59.170087 L66.5994194,60.8646957 C66.5264516,60.9731304 66.4522258,61.1887391 66.5264516,61.3589565 C66.7340323,61.4661304 66.5503548,61.8708696 66.7805806,61.9465217 C66.7642258,62.5618261 66.7906452,63.2553043 66.8812258,63.8252174 C66.6736452,63.9777826 66.9843871,64.0572174 66.8812258,64.2703043 L66.8510323,64.2703043 C66.6258387,64.844 67.1907097,65.0419565 67.0548387,65.5362174 C66.8673871,65.6131304 67.1479355,65.6572609 67.0548387,65.7972174 C66.8938065,66.1843043 67.3706129,66.2120435 67.2083226,66.6003913 C67.4561613,67.1211304 67.4133871,67.8612609 67.6662581,68.3857826 C67.5454839,68.6644348 67.8360968,68.9859565 67.8750968,69.3087391 C67.9078065,69.9404348 68.2021935,70.3880435 68.3493871,70.9289565 C68.699129,71.2517391 68.6450323,71.7283478 68.9469677,72.0813913 C68.9784194,72.3751739 69.2174516,72.5655652 69.2426129,72.8555652 C69.693,72.9917391 69.4803871,73.5616522 69.8351613,73.7785217 C69.7923871,74.0685217 70.0603548,74.2563913 70.1622581,74.4871304 C70.3232903,74.4114783 70.3107097,74.6396957 70.4113548,74.6712174 C70.3710968,74.9208696 70.473,75.0557826 70.5988065,75.2247391 C70.6692581,75.2436522 70.7132903,75.4239565 70.8000968,75.4731304 C71.156129,75.7807826 71.2441935,76.288913 71.741129,76.4452609 C71.7524516,76.5360435 71.8128387,76.5965652 71.9122258,76.6306087 C72.0631935,77.1526087 72.6720968,77.1828696 72.8670968,77.6922609 C73.3099355,77.7666522 73.4407742,78.136087 73.8748065,78.2470435 C74.0559677,78.3983478 74.0949677,78.7223913 74.4396774,78.6618696 C74.5440968,78.9707826 74.9152258,78.8043478 75.0045484,79.1359565 C75.3907742,79.3994783 75.9418065,79.3591304 76.3242581,79.6617391 C76.3846452,79.7676522 76.6186452,79.7235217 76.6802903,79.8483478 C77.6791935,80.2644348 78.6290323,80.6666522 79.7109677,80.9125217 C80.4708387,80.9743043 81.0923226,81.4193913 81.8207419,81.247913 C81.9125806,81.3752609 82.1792903,81.3122174 82.2811935,81.4383043 C83.0096129,81.403 83.5317097,81.606 84.2462903,81.5744783 L84.2462903,81.6198696 C84.4651935,81.5744783 84.9583548,81.5265652 85.2074516,81.6501304 L85.5194516,81.6501304 L85.5194516,81.6967826 L86.0251935,81.7598261 L86.0251935,81.8064783 C86.9926452,81.9603043 87.9122903,81.8342174 88.8520645,81.7598261 C88.9841613,81.6967826 88.9954839,81.9464348 89.1326129,81.8064783 C89.4559355,81.7283043 89.9189032,81.7736957 90.227129,81.6501304 C90.2875161,81.7434348 90.4686774,81.7283043 90.5819032,81.7283043 C90.6636774,81.5744783 90.8838387,81.7131739 91.0184516,81.6198696 C91.5833226,81.5152174 91.8500323,81.5265652 92.4425806,81.4660435 C92.5168065,81.6501304 92.5771935,81.403 92.7243871,81.4383043 C93.1093548,81.4824348 93.542129,81.5152174 93.8390323,81.3588696 C94.164871,81.3752609 94.6580323,81.2037826 95.1474194,81.2037826 C95.4594194,81.142 95.8859032,81.2037826 96.155129,81.0196957 C96.2180323,81.0196957 96.2897419,81.0499565 96.3337742,80.986913 L96.798,80.9125217 C96.798,80.7586957 97.0294839,80.9125217 97.0470968,80.7700435 C97.1980645,80.9743043 97.3062581,80.6830435 97.5088065,80.7271739 C97.9705161,80.8179565 98.3240323,80.5846957 98.7542903,80.5077826 C99.2625484,80.1900435 100.094129,80.3741304 100.612452,80.0677391 C101.13329,80.0916957 101.506935,79.8924783 101.963613,79.8004348 C102.304548,79.7525217 102.585097,79.5709565 102.988935,79.5886087 C103.714839,79.4663043 104.385387,79.2456522 105.09871,79.0603043 C105.439645,79.1069565 105.574258,78.832087 105.915194,78.8762174 C106.332871,78.6618696 106.941774,78.7072609 107.338065,78.4323913 C107.729323,78.6152174 107.920548,78.0188261 108.453968,78.184 C108.559645,78.1272609 108.808742,78.136087 108.841452,77.9545217 C109.512,77.923 110.075613,77.5964348 110.694581,77.4753913 C110.786419,77.3959565 111.082065,77.4917826 111.082065,77.2597826 C111.648194,77.3669565 111.784065,76.8878261 112.330065,76.9546522 C112.721323,76.6596087 113.403194,76.6886087 113.755452,76.3368261 C114.190742,76.473 114.158032,75.9169565 114.618484,76.1048261 C114.875129,75.9383913 115.242484,75.9963913 115.437484,75.7328696 C115.840065,75.7328696 115.973419,75.3193043 116.437645,75.3646957 C116.680452,75.1503478 117.189968,75.2247391 117.39629,74.9208696 C118.244226,74.7796522 118.777645,74.2563913 119.611742,74.0685217 C119.936323,73.8844348 120.471,73.873087 120.712548,73.515 C121.188097,73.4872609 121.408258,73.0888261 121.886323,73.0711739 C122.282613,72.684087 122.880194,72.6563478 123.353226,72.3751739 C123.637548,72.3877826 123.769645,72.054913 124.066548,72.0813913 C124.318161,71.8241739 124.750935,71.8367826 125.060419,71.6363043 C125.270516,71.3563913 125.710839,71.4812174 125.92471,71.1899565 C126.461903,71.1899565 126.739935,70.7272174 127.231839,70.6679565 C127.421806,70.5242174 127.645742,70.4977391 127.836968,70.372913 C128.048323,70.2354783 128.362839,70.2354783 128.522613,70.0009565 C128.923935,70.1093913 128.895,69.6327826 129.306387,69.7399565 C129.711484,69.3881739 130.276355,69.2646087 130.761968,69.001087 C130.855065,68.7703478 131.138129,68.8611304 131.270226,68.6316522 C131.643871,68.5408696 131.952097,68.4286522 132.220065,68.1563043 C132.459097,68.2168261 132.501871,68.0617391 132.696871,68.0163478 C132.949742,67.6607826 133.437871,67.6456522 133.762452,67.3367391 C133.839194,67.1980435 134.167548,67.3367391 134.185161,67.0908696 C134.241774,67.0757391 134.329839,67.1085217 134.362548,67.0454783 C134.329839,66.9395652 134.480806,66.9496522 134.536161,66.9395652 C135.171484,66.5058261 135.816871,66.167913 136.5,65.7972174 C136.574226,65.4277826 137.063613,65.7215652 137.154194,65.3508696 C137.393226,65.2424348 137.642323,65.1176087 137.893935,65.0116957 C138.193355,64.6094783 138.814839,64.6271304 139.036258,64.1643913 C139.378452,64.3056087 139.187226,63.7621739 139.525645,63.8983478 C140.064097,63.8403478 140.318226,63.3158261 140.82271,63.209913 C141.144774,62.9804348 141.447968,62.7648261 141.739839,62.5303043 C141.952452,62.5933478 141.978871,62.3928696 142.098387,62.3146957 C142.453161,61.9616522 143.018032,61.8847391 143.392935,61.5455652 C143.659645,61.4661304 143.834516,61.2391739 144.058452,61.0979565 C144.385548,60.8205652 144.788129,60.6024348 145.173097,60.3906087 C145.339161,60.175 145.634806,60.0627826 145.887677,59.9417391 C145.961903,59.7425217 146.290258,59.7904348 146.273903,59.5092609 C146.539355,59.4966522 146.719258,59.2331304 146.988484,59.170087 C147.475355,58.8006522 148.042742,58.435 148.559806,58.0315217 C148.943516,58 149.035355,57.5057391 149.450516,57.5057391 C149.748677,57.3241739 150.123581,57.1552174 150.371419,56.8753043 C150.534968,56.6622174 150.761419,56.6748261 150.907355,56.4743478 C151.648355,56.1818261 152.289968,55.5967826 153.013355,55.2576087 C153.459968,54.9625652 153.847452,54.5792609 154.399742,54.472087 C154.499129,54.1341739 154.813645,54.3497826 155.081613,54.2867391 C154.988516,54.5653913 155.363419,54.5023478 155.262774,54.7658696 C155.216226,54.7658696 155.201129,54.7961304 155.184774,54.8112609 C155.315613,54.9524783 155.232581,55.2576087 155.262774,55.4744783 C154.861452,55.6736957 155.526968,56.336913 154.900452,56.3696957 C154.768355,56.5676522 154.692871,56.7504783 154.68029,57.032913 C154.533097,57.2308696 154.248774,57.3065217 154.295323,57.6608261 C154.175806,57.6608261 154.207258,57.8146522 154.143097,57.8474348 C153.951871,58.155087 153.579484,58.203 153.476323,58.5383913 C153.229742,58.8346957 152.940387,58.9267391 152.766774,59.2495217 C152.554161,59.3415652 152.497548,59.6013043 152.228323,59.5735652 C152.111323,60.0211739 151.637032,60.175 151.371581,60.4662609 C151.069645,60.4977826 150.955161,60.8054348 150.654484,60.8344348 C150.672097,60.9428696 150.475839,60.9138696 150.444387,60.9895217 C150.360097,61.3589565 149.748677,60.9895217 149.734839,61.4661304 C149.28571,62.020913 148.484323,62.0045217 148.085516,62.6059565 C147.773516,62.6563913 147.682935,63.0220435 147.338226,63.0220435 C146.968355,63.3158261 146.660129,63.6423913 146.124194,63.7167826 C146.063806,64.0723478 145.695194,64.0093043 145.555548,64.2703043 C145.325323,64.3182174 145.291355,64.5792174 145.024645,64.5325652 C144.788129,64.7330435 144.491226,64.8704783 144.313839,65.1176087 C143.911258,65.2121739 143.687323,65.521087 143.273419,65.5626957 C143.109871,66.0266957 142.649419,66.014087 142.351258,66.3053478 C142.039258,66.2120435 142.217903,66.6583913 141.921,66.536087 C141.416516,66.9496522 140.730871,67.153913 140.245258,67.6456522 C139.960935,67.6128696 139.816258,67.9520435 139.525645,67.9406957 C139.261452,68.2319565 138.918,68.2458261 138.608516,68.4916957 C138.682742,68.6480435 138.476419,68.6165217 138.460065,68.7085652 C138.203419,68.6644348 138.179516,68.9405652 137.924129,68.8951739 C137.70271,69.0477391 137.313968,69.1095217 137.154194,69.3402609 C136.784323,69.3881739 136.736516,69.8824348 136.321355,69.8647826 C136.053387,70.1573043 135.594194,70.1888261 135.374032,70.5242174 C134.717323,70.4813478 134.553774,71.176087 133.898323,71.0815217 C133.762452,71.6060435 133.201355,71.4358261 132.933387,71.775 C132.28171,71.851913 132.104323,72.5315217 131.373387,72.4798261 C130.958226,72.779913 130.631129,73.1127826 130.083871,73.1922174 C129.813387,73.3283913 129.488806,73.4872609 129.190645,73.620913 C129.074903,73.8365217 128.850968,73.823913 128.62829,73.931087 C128.255903,74.1769565 127.675935,74.2715217 127.277129,74.5161304 C127.006645,74.7796522 126.514742,74.9006957 126.201484,75.1036957 L126.201484,75.1793478 C125.865581,75.1793478 125.671839,75.4907826 125.343484,75.4731304 C125.19629,75.7530435 124.798742,75.7051304 124.597452,75.8866957 C124.28671,76.0115217 123.903,76.056913 123.738194,76.3645652 C123.32429,76.4276087 123.101613,76.705 122.714129,76.8134348 C122.341742,76.7844348 122.254935,77.1828696 121.851097,77.1046957 C121.496323,77.3959565 121.006935,77.5800435 120.601839,77.7666522 C120.208065,77.6922609 120.208065,78.136087 119.789129,78.0301739 C119.490968,78.1713913 119.228032,78.339087 118.822935,78.3239565 C118.717258,78.5546957 118.320968,78.4601304 118.21529,78.6921304 C117.783774,78.7072609 117.456677,78.938 117.067935,79.0603043 C117.013839,79.2645652 116.664097,79.1233478 116.576032,79.325087 C116.329452,79.4322609 116.030032,79.3994783 115.818677,79.6176087 C115.584677,79.6617391 115.437484,79.6945217 115.231161,79.7676522 C114.769452,80.1106087 114.130355,80.1396087 113.625871,80.4018696 C113.103774,80.3741304 112.821968,80.5998261 112.48229,80.8356087 C112.109903,80.7397826 112.125,81.094087 111.76771,81.0196957 C111.470806,81.3412174 110.874484,81.1281304 110.619097,81.5152174 C110.210226,81.4383043 110.031581,81.7434348 109.659194,81.7283043 C109.109419,82.0662174 108.324387,82.1292609 107.622387,82.2553478 C107.018516,82.4053913 106.480065,82.6827826 105.809516,82.7306957 C105.630871,83.0547391 105.09871,82.8378696 104.844581,83.0547391 C104.325,83.2236957 103.702258,83.3308696 103.214129,83.5464783 C102.944903,83.683913 102.454258,83.5464783 102.274355,83.791087 C101.561032,83.683913 101.264129,84.1630435 100.567161,84.1025217 C100.374677,84.1163913 100.209871,84.1933043 100.079032,84.3193913 C99.1279355,84.2071739 98.5454516,84.6547826 97.6849355,84.6547826 C96.9414194,84.8111304 96.1261935,84.7632174 95.3965161,84.9788261 C94.2869032,85.0834783 93.2754194,85.365913 92.1154839,85.4579565 C90.9580645,85.5966522 90.1139032,85.5033478 88.8772258,85.5336087 C88.6117742,85.7479565 88.1060323,85.5802609 87.8053548,85.7176957 L87.8053548,85.6899565 C87.5864516,85.5966522 87.0052258,85.6899565 86.6328387,85.6092609 C86.6328387,85.4743478 86.4894194,85.5663913 86.4139355,85.5336087 C86.249129,85.7176957 86.0704839,85.5336087 85.8503226,85.5336087 L84.8803548,85.5336087 L84.8803548,85.5033478 L83.8915161,85.4264348 L83.8915161,85.3936522 L83.0674839,85.3192609 L83.0674839,85.2713478 C82.4887742,85.2864783 82.5353226,85.1187826 81.9553548,85.1313913 L81.9553548,85.0834783 C80.826871,85.0229565 80.067,84.5186087 79.0479677,84.3193913 C78.7321935,84.1025217 78.3761613,83.9789565 77.9698065,83.9171739 C77.8993548,83.791087 77.6791935,83.839 77.6162903,83.7305652 C77.5496129,83.5313478 77.2300645,83.7141739 77.1872903,83.501087 C76.8627097,83.5136957 76.7859677,83.1770435 76.4311935,83.2098261 C76.2965806,83.1303913 76.1355484,83.0673478 76.0122581,82.9475652 C75.6147097,82.7306957 75.2234516,82.4835652 74.7969677,82.3146087 C74.7969677,82.1721304 74.6309032,82.2994783 74.5856129,82.2061739 C74.3038065,82.0384783 74.1704516,81.7863043 73.8332903,81.7283043 C73.8886452,81.3878696 73.4130968,81.6501304 73.4407742,81.3588696 C73.143871,81.0499565 72.7601613,80.8179565 72.4519355,80.543087 C72.3311613,80.2190435 71.8229032,80.2946957 71.7662903,79.9088696 C71.487,80.0021739 71.6794839,79.6365217 71.4115161,79.6945217 C71.1812903,79.2456522 70.686871,79.0603043 70.4440645,78.6152174 C69.9836129,78.2281304 69.6577742,77.796913 69.2740645,77.3959565 C69.1381935,77.1526087 68.9293548,77.0000435 68.8387742,76.7365217 C68.5280323,76.3834783 68.2625806,75.98 67.995871,75.5966957 C67.995871,75.381087 67.7694194,75.2751739 67.6410968,75.1503478 C67.3567742,74.7960435 67.3429355,74.3005217 66.9516774,74.0407826 C66.7214516,73.6688261 66.5994194,73.2855217 66.3452903,72.9286957 C66.2987419,72.3121304 65.7628065,72.0233913 65.7099677,71.3727826 C65.5602581,70.8974348 65.2155484,70.5406087 65.0960323,70.0488696 C65.0230645,69.8332609 65.111129,69.494087 64.8884516,69.4196957 C64.9626774,69.1713043 64.7550968,69.1221304 64.7852903,68.8951739 C64.5588387,68.6644348 64.5525484,68.3567826 64.4531613,68.0163478 C64.4846129,67.5246087 64.1336129,67.3216087 64.2040645,66.7819565 C63.980129,65.753087 63.8014839,64.7330435 63.668129,63.6083478 C63.6115161,63.0409565 63.512129,62.5303043 63.4945161,61.9099565 C63.3599032,60.6377391 63.3599032,59.4348696 63.2101935,58.1689565 L63.1762258,57.478 L63.2101935,57.478 C63.3599032,57.1224348 63.0755806,56.9522174 63.1762258,56.5827826 L63.2101935,56.5827826 L63.2403871,55.6913478 L63.2844194,55.6913478 L63.3599032,53.9652174 C63.3875806,53.9652174 63.4051935,53.9336957 63.4165161,53.9147826 C63.3599032,53.842913 63.3460645,53.7798696 63.3599032,53.6575652 L63.3875806,53.6575652 L63.4643226,52.0713913 L63.4945161,52.0713913 L63.5335161,51.2505652 L63.5649677,51.2505652 L63.6391935,50.3742609 L63.668129,50.3742609 C63.6882581,49.6820435 63.9511935,49.1865217 63.8492903,48.4501739 C64.0430323,48.2925652 63.9511935,47.879 64.0291935,47.6016087 C64.1776452,47.3998696 64.0430323,47.0001739 64.1336129,46.7555652 L64.1776452,46.7555652 L64.2506129,45.9397826 C64.428,45.780913 64.370129,45.3547391 64.4531613,45.1202174 C64.428,44.5061739 64.7852903,44.2413913 64.7085484,43.6096957 C64.8029032,43.4873913 64.8029032,43.2881739 64.8884516,43.1646087 C64.6959677,42.4875217 65.2432258,42.3324348 65.0960323,41.6881304 C65.3753226,40.8546957 65.5602581,39.914087 65.7804194,39.0176087 C65.7275806,38.8663043 65.7628065,38.5851304 65.6030323,38.5447826 C65.0079677,38.4325652 64.1776452,38.356913 63.8140645,38.9129565 C63.6391935,39.1588261 63.4051935,39.342913 63.2844194,39.6493043 C63.1045161,39.6493043 63.0504194,39.835913 62.927129,39.943087 C62.8780645,40.0073913 62.9422258,40.2078696 62.7774194,40.1296957 C62.4930968,40.5306522 62.0640968,40.8231739 61.8577742,41.2707826 C61.5558387,41.3325652 61.5935806,41.7045217 61.3922903,41.8230435 C61.191,41.9604783 61.0853226,42.1445652 60.9242903,42.2681304 C60.9066774,42.3324348 60.8349677,42.379087 60.8613871,42.4522174 C60.6538065,42.4686087 60.6865161,42.7308696 60.5028387,42.8254348 C60.3732581,43.2125217 59.924129,43.3184348 59.7203226,43.674 C59.493871,43.9047391 59.3793871,44.1821304 59.1416129,44.3826087 C58.7943871,44.5351739 58.6811613,44.9361304 58.4245161,45.1504783 C58.2332903,45.3648261 58.0999355,45.646 57.7891935,45.7556957 C57.7891935,46.1238696 57.2998065,45.9977826 57.2998065,46.3836087 C57.1639355,46.4441304 57.0934839,46.5248261 57.075871,46.6761304 C56.9387419,46.7555652 56.8343226,46.9383913 56.7210968,47.077087 C56.3197742,47.3683478 56.0216129,47.831087 55.6479677,48.0794783 C55.4705806,48.5686957 54.7320968,48.5686957 54.7610323,49.2193043 C54.5962258,49.4475217 54.2389355,49.4361739 54.1936452,49.7753478 C53.8967419,50.1624348 53.3343871,50.3427391 53.1985161,50.8836522 C52.9632581,50.9769565 52.8424839,51.2984783 52.5418065,51.3287391 C52.3254194,51.9465652 51.6838065,52.1962174 51.2686452,52.703087 C51.1466129,52.7283043 51.0862258,52.914913 50.9377742,52.914913 C50.7993871,53.4104348 50.3125161,53.5957826 50.0923548,54.027 C49.7665161,54.2741304 49.4067097,54.4418261 49.2268065,54.8440435 C48.828,54.7961304 48.8783226,55.350913 48.5147419,55.3660435 C48.321,55.4744783 48.3562258,55.7833913 48.0882581,55.7657391 C48.068129,56.154087 47.5372258,56.0595217 47.5472903,56.4743478 C47.4013548,56.3986957 47.444129,56.5991739 47.3145484,56.5827826 C47.3145484,56.7996522 46.8855484,56.6937391 46.9937419,57.032913 C46.9585161,57.032913 46.8993871,57.014 46.8855484,57.061913 C46.781129,57.169087 46.6138065,57.293913 46.4842258,57.401087 C46.2024194,57.6318261 45.9206129,57.7982609 45.7381935,58.1412174 C45.1758387,58.3719565 44.9997097,58.9267391 44.4625161,59.2016087 L44.4625161,59.2785217 C44.2423548,59.2205217 44.3291613,59.5092609 44.2134194,59.5420435 C44.0045806,59.8181739 43.6309355,59.8824783 43.4233548,60.2065217 C43.0522258,60.4801304 42.6232258,60.7776957 42.3565161,61.1748696 C41.847,61.6376087 41.3840323,62.0045217 40.8657097,62.3928696 C40.3800968,62.8051739 39.9460645,63.1783913 39.4315161,63.5301739 C39.3572903,63.7167826 39.0767419,63.7785652 39.0465484,63.9777826 C38.3898387,64.3661304 37.8941613,64.9801739 37.2588387,65.3054783 C36.795871,65.7656957 36.2360323,66.014087 35.8334516,66.536087 C35.5063548,66.6747826 35.2987742,66.9685652 34.944,67.0454783 C34.7188065,67.4766957 34.262129,67.4451739 34.0067419,67.8335217 C33.7400323,67.7856087 33.6343548,68.1714348 33.3714194,68.1563043 C33.2833548,68.3681304 33.0682258,68.4046957 33.012871,68.6316522 C32.6404839,68.7085652 32.4027097,68.9859565 32.097,69.1523913 C31.6453548,69.357913 31.4704839,69.8181304 30.9207097,69.8963043 C30.5646774,70.1421739 30.3206129,70.4195652 29.9884839,70.6679565 C29.8677097,70.9415652 29.445,70.8495217 29.426129,71.2202174 C29.0927419,71.3437826 28.7492903,71.4522174 28.4259677,71.5606522 C28.1240323,71.5896522 28.1529677,72.054913 27.8158065,71.9616087 C27.4434194,72.3751739 26.7892258,72.3461739 26.4948387,72.8555652 C26.286,72.7647826 26.3124194,73.0522609 26.1048387,72.9652609 C25.9563871,73.0056087 25.8985161,73.1922174 25.8544839,73.3283913 C25.2443226,73.4406087 24.8140645,73.747 24.4290968,74.1479565 C23.8013226,74.4392174 23.1609677,74.733 22.6464194,75.1793478 C22.4262581,75.1944783 22.3193226,75.4441304 22.0362581,75.4126087 C22.0035484,75.7996957 21.5569355,75.5513043 21.4676129,75.8866957 C21.2600323,75.9043478 21.1732258,76.1514783 20.9354516,76.1048261 C20.6813226,76.288913 20.4309677,76.473 20.1793548,76.6596087 C20.1013548,76.6596087 20.0485161,76.6747391 19.9981935,76.7365217 C19.5364839,76.8285652 19.2546774,77.1967391 18.9024194,77.4753913 C18.5879032,77.4148696 18.5740645,77.7805217 18.3237097,77.7666522 C18.0117097,78.0919565 17.5625806,78.136087 17.2946129,78.4790435 C16.8844839,78.3706087 16.8505161,78.8043478 16.5120968,78.8043478 C16.2718065,78.7551739 16.3925806,79.0603043 16.2277742,79.1069565 C15.7383871,79.296087 15.3509032,79.5709565 14.9319677,79.8786087 C14.1796452,80.1257391 13.6437097,80.6666522 12.8372903,80.8822609 C12.6133548,81.0814783 12.2132903,81.0688696 12.0195484,81.2819565 C11.6043871,81.2201739 11.5754516,81.6501304 11.1577742,81.5442174 C10.9627742,81.7434348 10.5954194,81.7283043 10.4155161,81.9867826 C10.0116774,82.0813478 9.67325806,82.2389565 9.23041935,82.2805652 C8.90332258,82.2200435 8.73851613,82.5466087 8.33593548,82.4394348 C8.02141935,82.5705652 7.68551613,82.6058696 7.31312903,82.6827826 C7.10051613,82.8189565 6.61741935,82.5617391 6.52558065,82.9135217 C5.61851613,82.8189565 4.78693548,83.114 3.9993871,82.8063478 L3.74525806,82.8063478 L3.74525806,82.7596957 C3.22693548,82.6966522 2.769,82.4545652 2.24941935,82.3877391 C1.96006452,82.3625217 1.89212903,81.867 1.4606129,81.9867826 C1.3826129,81.8064783 1.21780645,81.7283043 1.07564516,81.6501304 C0.912096774,81.3412174 0.642870968,81.2037826 0.401322581,81.0196957 C0.368612903,80.7876957 0.223935484,80.6666522 0.18116129,80.4661739 C-0.22016129,80.3098261 0.18116129,79.9883043 0.109451613,79.6617391 C0.267967742,79.6176087 0.45416129,79.5406957 0.469258065,79.3591304 C1.21780645,79.1561304 1.62541935,79.7235217 2.32867742,79.5886087 L2.32867742,79.5406957 C3.0206129,79.6365217 3.98303226,79.7235217 4.63974194,79.4763913 C5.4423871,79.3717391 6.31548387,79.2456522 7.05774194,78.985913 C7.644,78.8762174 8.14596774,78.648 8.73851613,78.4790435 C9.17003226,78.2949565 9.64180645,78.184 10.0594839,77.923 C10.5513871,77.8133043 10.9942258,77.6758696 11.3389355,77.3669565 C11.4420968,77.1677391 11.8698387,77.3228261 11.9465806,77.0265217 C12.2132903,77.0441739 12.3466452,76.860087 12.5567419,76.8134348 C12.9178065,76.4276087 13.4864516,76.3506957 13.863871,76.027913 C14.313,75.98 14.487871,75.5513043 14.9017742,75.4731304 C14.9923548,75.3646957 15.2049677,75.3646957 15.2917742,75.1793478 C15.5886774,75.0721739 15.854129,74.9511304 16.0780645,74.704 C16.3485484,74.7178696 16.4617742,74.395087 16.7209355,74.4114783 C16.8844839,74.1151739 17.2946129,74.1769565 17.4745161,73.931087 C17.8783548,73.8554348 18.0809032,73.4683478 18.5036129,73.4406087 C18.5564516,73.3926957 18.7338387,73.380087 18.7212581,73.2237391 C19.0785484,73.1316957 19.2546774,72.8202609 19.6434194,72.779913 C19.7440645,72.7483913 19.7440645,72.4974783 19.929,72.5882609 C20.1894194,72.3638261 20.4309677,72.1444348 20.7895161,72.0813913 C20.9782258,71.8241739 21.3493548,71.8367826 21.528,71.5606522 C22.0664516,71.3135217 22.5885484,71.021 23.0729032,70.6679565 C23.1609677,70.6805652 23.264129,70.6679565 23.2855161,70.5582609 L23.2855161,70.4813478 C23.5346129,70.372913 23.8302581,70.2821304 23.9636129,70.0009565 C24.4857097,70.0198696 24.8140645,69.5722609 25.1688387,69.3692609 C25.5714194,69.0943913 26.0343871,68.9859565 26.3413548,68.6316522 C26.6546129,68.3567826 27.0093871,68.2004348 27.3540968,67.9406957 C27.7264839,67.8612609 28.0284194,67.5372174 28.353,67.3367391 C28.6423548,67.2446957 28.8298065,67.0454783 29.0638065,66.863913 C29.7041613,66.5814783 30.2224839,66.1376522 30.7697419,65.7215652 C31.3497097,65.3975217 31.8541935,64.8893913 32.4505161,64.5691304 C32.7121935,64.1341304 33.2493871,64.0093043 33.5475484,63.6423913 C33.6343548,63.6726522 33.6658065,63.5932174 33.7261935,63.578087 L33.7261935,63.4545217 C34.1275161,63.3486087 34.3904516,63.1166087 34.6961613,62.8694783 C34.7188065,62.7131304 34.944,62.7131304 35.0207419,62.5807391 C35.3893548,62.5466957 35.5654839,62.0536957 35.937871,62.020913 C36.0724839,61.8973478 36.251129,61.8229565 36.3215806,61.6565217 C36.678871,61.2215217 37.2588387,61.0815652 37.6136129,60.6503478 C37.5972581,60.4511304 37.7595484,60.4196087 37.8941613,60.3906087 C38.1004839,60.4334783 37.926871,60.0816957 38.1822581,60.2065217 C38.4653226,59.990913 38.7710323,59.7425217 38.9987419,59.4348696 C39.332129,59.3856957 39.3824516,59.0780435 39.6567097,58.9872609 C39.6718065,58.6014348 40.1410645,58.7716522 40.2165484,58.435 C40.4719355,58.2307391 40.6858065,57.9672174 40.9588065,57.7982609 C40.9185484,57.478 41.3626452,57.6936087 41.3160968,57.401087 C41.5651935,57.3393043 41.6570323,57.1388261 41.8922903,57.032913 C42.1615161,56.5991739 42.6056129,56.3230435 42.9880645,56.0595217 C43.115129,55.7833913 43.2874839,55.738 43.4510323,55.5034783 C43.542871,55.5034783 43.6649032,55.4593478 43.6724516,55.3660435 C43.778129,55.2752609 43.8410323,55.0873913 43.9592903,54.9953478 C44.2423548,54.9045652 44.3895484,54.5792609 44.6373871,54.4418261 C45.0210968,54.0396087 45.3708387,53.6260435 45.845129,53.3625217 C45.7646129,53.1002609 46.116871,53.2414783 46.0665484,52.9956087 C46.5244839,52.8241304 46.8125806,52.363913 47.0629355,51.9604348 C47.1635806,51.8381304 47.3598387,51.7624783 47.4906774,51.6225217 C48.1763226,50.8836522 48.9764516,50.2834783 49.5853548,49.4475217 C49.901129,49.3252174 50.0055484,48.9431739 50.3024516,48.8183478 C50.6836452,48.3745217 51.1189355,48.0794783 51.4145806,47.5549565 C51.654871,47.357 51.8284839,47.0922174 52.1253871,46.9383913 C52.2046452,46.7555652 52.2285484,46.613087 52.4411613,46.5689565 C52.6952903,46.215913 52.9506774,45.9082609 53.2324839,45.646 C54.4163226,44.4595217 55.4227742,43.1192174 56.6154194,41.9037391 C57.2394194,41.0677826 58.0244516,40.3314348 58.4748387,39.3908261 C58.559129,38.9747391 58.0169032,39.2193478 57.8923548,39.0970435 C57.2532581,39.2647391 56.3801613,39.0491304 55.7486129,39.2836522 C55.5624194,39.3756957 55.1585806,39.2193478 55.0113871,39.4198261 C54.8679677,39.5131304 54.9082258,39.2508696 54.8088387,39.3908261 C53.3771613,39.5925652 51.9190645,39.7274783 50.5226129,39.9733478 C50.3024516,39.943087 50.2269677,40.2368696 49.940129,40.1296957 C49.8533226,39.9733478 49.7803548,40.1902174 49.6293871,40.1586957 C49.3324839,40.252 49.1135806,40.3894348 48.770129,40.3894348 C48.5789032,40.4676087 48.2178387,40.3453043 48.0882581,40.5760435 C47.7284516,40.6403478 47.1811935,40.4209565 46.9937419,40.7613913 C46.5735484,40.9139565 45.8853871,40.7286087 45.5595484,41.0526522 C45.2676774,41.0993043 45.0210968,41.0993043 44.7480968,41.2064783 C44.363129,41.2556522 43.7240323,41.3905652 43.2195484,41.5002609 C42.7704194,41.778913 42.2785161,41.8230435 41.7463548,41.9781304 C41.2318065,41.9781304 40.9864839,42.3324348 40.4291613,42.3198261 C40.0592903,42.3324348 39.7812581,42.561913 39.3572903,42.5303913 C39.2717419,42.7308696 39.0465484,42.7485217 38.8175806,42.7951739 C38.513129,42.7800435 38.4489677,42.978 38.1570968,43.0120435 C37.9507742,43.3045652 37.3544516,43.0423043 37.1808387,43.3802174 C36.9216774,43.4268696 36.7052903,43.4684783 36.5065161,43.6096957 C36.2825806,43.6878696 35.8334516,43.5630435 35.7340645,43.8568261 C35.1603871,43.8883478 34.8370645,44.2590435 34.2319355,44.1947391 C34.0205806,44.4002609 33.8004194,44.4116087 33.5878065,44.5641739 C33.402871,44.5351739 33.1021935,44.66 33.012871,44.4595217 C32.7285484,44.5805652 32.466871,44.3826087 32.273129,44.2275217 C31.7220968,43.8732174 31.9120645,43.0246522 31.4113548,42.6136087 C31.2301935,42.4383478 31.3258065,42.0348696 31.337129,41.7953043 C31.4855806,41.7953043 31.3622903,41.6238261 31.4516129,41.5784348 C31.6617097,40.8824348 32.3561613,40.6996087 33.0556452,40.5306522 C33.4708065,40.2078696 34.1702903,40.2683913 34.6961613,40.0225217 C34.7452258,39.7917826 35.0911935,40.0073913 35.2207742,39.835913 C35.9944839,39.5925652 36.8084516,39.2836522 37.6488387,39.1260435 C37.7595484,39.0491304 38.0476452,39.1424348 38.0476452,38.9129565 C38.277871,38.8663043 38.630129,38.9432174 38.7043548,38.6796957 C38.9987419,38.667087 39.3962903,38.7591304 39.4969355,38.4678696 C40.0882258,38.4804783 40.5839032,38.4048261 41.0003226,38.1690435 L41.0732903,38.1690435 L41.0732903,38.2043478 C41.3450323,37.9572174 41.9564516,38.1110435 42.2495806,37.8008696 L42.5313871,37.8008696 L42.5313871,37.8336522 C43.115129,37.7416087 43.7668065,37.420087 44.4964839,37.5398696 C44.597129,37.0481304 45.2500645,37.4326957 45.5595484,37.2019565 C46.2024194,37.0935217 46.974871,37.246087 47.444129,36.83 C47.9196774,36.9094348 48.0404516,36.6156522 48.4895806,36.6156522 C49.5564194,36.645913 50.3867419,36.2953913 51.4145806,36.2159565 C51.9429677,35.8931739 52.8852581,36.2298261 53.4350323,35.9083043 C54.8679677,35.9385652 55.5624194,35.5842609 56.9387419,35.5073478 C57.7149677,35.4455652 58.4547097,35.3358696 59.2862903,35.3207391 C60.06,35.0307391 61.2903871,35.2917391 61.9961613,34.9513043 C62.6604194,34.8756522 62.6893548,34.1506522 63.1762258,33.8417391 C63.3271935,33.5492174 63.5800645,33.35 63.7499032,33.0726087 C64.1336129,32.5216087 64.5588387,32.0122174 64.8884516,31.4385217 C65.2595806,31.2367826 65.2948065,30.7450435 65.6785161,30.5143043 C65.9615806,29.7603043 66.6434516,29.2685652 66.9516774,28.5120435 C67.0913226,28.5120435 67.0913226,28.3897391 67.1366129,28.2964348 C67.3857097,27.9106087 67.6662581,27.5285652 67.8750968,27.1112174 C67.995871,26.9725217 68.1028065,26.8174348 68.2021935,26.6648696 C68.3632258,26.3408261 68.6349677,26.0936957 68.7091935,25.7091304 C68.9897419,25.5540435 69.0362903,25.1215652 69.1960645,24.8946087 C69.6577742,24.4432174 69.7470968,23.8443043 70.1370968,23.3815652 C70.3107097,22.949087 70.686871,22.6275652 70.8479032,22.1635652 C71.0441613,21.8861739 71.156129,21.5936522 71.4115161,21.3465217 C72.090871,20.2382174 72.7601613,19.1324348 73.4407742,18.0203478 C73.9666452,17.4037826 74.0949677,16.4316522 74.7252581,15.9096522 C74.8271613,15.6953043 75.0485806,15.554087 75.0045484,15.2464348 C75.2159032,15.1543913 75.1957742,14.9085217 75.3593226,14.7698261 C75.4800968,14.5706087 75.5845161,14.3676087 75.6851613,14.1683913 C75.9418065,13.6753913 76.146871,13.1206087 76.4311935,12.6124783 C76.6991613,12.256913 76.7859677,11.8294783 77.0400968,11.4726522 C77.1633871,11.1788696 77.3193871,10.8699565 77.5043226,10.6228261 C77.7194516,10.0226522 78.1081935,9.51704348 78.3912581,8.95973913 C78.839129,8.17673913 79.4291613,7.43534783 79.8179032,6.58930435 C80.4142258,6.37243478 80.2443871,5.57052174 80.7815806,5.2943913 C80.886,4.66143478 81.51,4.34117391 81.5716452,3.67543478 C81.7779677,3.59726087 81.7314194,3.24547826 81.8949677,3.12191304 C81.881129,2.95295652 82.0434194,2.81047826 82.076129,2.67556522 C82.2962903,2.47256522 82.3566774,2.15230435 82.4623548,1.85852174 C82.7441613,1.48656522 82.8926129,0.962043478 83.2473871,0.640521739 C83.400871,0.735086957 83.6487097,0.640521739 83.8122581,0.562347826 C84.123,0.843521739 84.6136452,0.81073913 84.9269032,1.11713043 C84.9130645,1.55213043 85.5030968,1.32013043 85.4175484,1.77908696 Z" id="Fill-6" fill="#BF9931"></path>
                    <path d="M29.3116452,105.705 C29.2864839,105.851261 29.1418065,105.973565 28.9694516,105.973565 L19.4710645,105.973565 C19.2509032,105.973565 19.0810645,105.92313 19.0810645,105.803348 C19.0810645,105.655826 19.2509032,105.557478 19.4710645,105.508304 C19.9113871,105.411217 20.2284194,105.020348 20.2284194,104.407565 L20.2523226,98.6075652 L20.2284194,92.9803043 C20.2284194,92.3675217 19.8610645,91.9766522 19.4232581,91.901 L18.4218387,91.756 C18.2016774,91.7307826 18.0318387,91.6084783 18.0318387,91.484913 C18.0318387,91.3386522 18.2016774,91.2894783 18.4218387,91.2894783 L23.9158065,91.2894783 C24.1359677,91.2894783 24.3058065,91.3386522 24.3058065,91.4622174 C24.3058065,91.6084783 24.1108065,91.7307826 23.9158065,91.756 L23.1093871,91.901 C22.6703226,91.9766522 22.2790645,92.3902174 22.2790645,93.003 L22.2539032,98.6075652 L22.2790645,104.555087 C22.2790645,104.799696 22.5482903,104.99513 22.7923548,104.99513 L25.8456774,104.944696 C28.3831935,104.896783 28.8486774,103.74687 29.3594516,101.86313 C29.4097742,101.666435 29.5796129,101.54413 29.7016452,101.54413 C29.8500968,101.54413 29.970871,101.691652 29.8979032,102.107739 L29.3116452,105.705" id="Fill-9" fill="#FFFFFE"></path>
                    <path d="M41.1047419,105.973565 L35.4409355,105.973565 C35.2207742,105.973565 35.0509355,105.92313 35.0509355,105.803348 C35.0509355,105.655826 35.2207742,105.532261 35.4409355,105.508304 L36.4423548,105.362043 C36.8801613,105.288913 37.2475161,104.871565 37.2475161,104.260043 L37.2714194,98.6075652 L37.2475161,93.003 C37.2475161,92.3902174 36.8801613,91.9766522 36.4423548,91.901 L35.4409355,91.756 C35.2207742,91.7307826 35.0509355,91.6084783 35.0509355,91.484913 C35.0509355,91.3386522 35.2207742,91.2894783 35.4409355,91.2894783 L41.1047419,91.2894783 C41.3261613,91.2894783 41.496,91.3386522 41.496,91.4622174 C41.496,91.6084783 41.3261613,91.7307826 41.1047419,91.756 L40.1045806,91.901 C39.6642581,91.9766522 39.2981613,92.3902174 39.2981613,93.003 L39.273,98.6075652 L39.2981613,104.260043 C39.2981613,104.871565 39.6642581,105.288913 40.1045806,105.362043 L41.1047419,105.508304 C41.3261613,105.532261 41.496,105.655826 41.496,105.77813 C41.496,105.92313 41.3261613,105.973565 41.1047419,105.973565" id="Fill-10" fill="#FFFFFE"></path>
                    <path d="M61.6665484,91.756 L60.9079355,91.901 C60.468871,91.9766522 60.1015161,92.3902174 60.1015161,92.9803043 L60.0298065,98.6567391 L60.0776129,105.92313 C60.0776129,106.09587 59.9794839,106.219435 59.8348065,106.219435 L59.6146452,106.219435 C59.4913548,106.219435 59.3932258,106.143783 59.3215161,106.046696 L50.8484516,94.8867391 C50.7264194,94.7404783 50.5565806,94.8136087 50.5565806,94.9611304 L50.7742258,104.016696 C50.7993871,104.99513 50.8975161,105.288913 51.0673548,105.45913 C51.2145484,105.630609 51.3843871,105.655826 51.3843871,105.803348 C51.3843871,105.92313 51.2875161,105.973565 51.0673548,105.973565 L47.5523226,105.973565 C47.3321613,105.973565 47.1598065,105.92313 47.1598065,105.803348 C47.1598065,105.655826 47.3573226,105.557478 47.5523226,105.508304 L48.3084194,105.362043 C48.7487419,105.288913 49.0896774,104.847609 49.1148387,104.260043 L49.335,95.2044783 L49.335,93.1744783 C49.335,92.7823478 49.2117097,92.1216522 48.7726452,91.9993478 L47.8932581,91.7786957 C47.6982581,91.7307826 47.4554516,91.6084783 47.4554516,91.4622174 C47.4554516,91.3386522 47.6252903,91.2894783 47.8454516,91.2894783 L50.1892258,91.2894783 C50.3603226,91.2894783 50.5565806,91.3386522 50.6534516,91.484913 L58.2722903,101.518913 C58.442129,101.739565 58.7100968,101.641217 58.7100968,101.420565 L58.7352581,98.6567391 L58.6622903,93.003 C58.6622903,92.3902174 58.2949355,91.9766522 57.857129,91.901 L56.9764839,91.756 C56.7575806,91.7055652 56.5864839,91.6084783 56.5864839,91.4622174 C56.5864839,91.3386522 56.7575806,91.2894783 56.9764839,91.2894783 L61.6665484,91.2894783 C61.8841935,91.2894783 62.0565484,91.3386522 62.0565484,91.4622174 C62.0565484,91.6084783 61.8841935,91.7055652 61.6665484,91.756" id="Fill-11" fill="#FFFFFE"></path>
                    <path d="M74.4610645,92.2691739 L72.3613548,92.2691739 C72.0430645,92.2691739 71.6782258,92.5137826 71.6782258,92.8327826 L71.6530645,98.6567391 L71.6782258,103.772087 C71.6782258,104.67613 72.5060323,105.020348 73.9226129,105.020348 C77.6842258,105.020348 78.4654839,101.177217 78.4654839,98.1675217 C78.4654839,93.7128696 76.5859355,92.2691739 74.4610645,92.2691739 Z M74.1427742,105.973565 L68.0638065,105.973565 C67.8436452,105.973565 67.6738065,105.92313 67.6738065,105.803348 C67.6738065,105.655826 67.8675484,105.557478 68.0638065,105.508304 L68.8199032,105.362043 C69.2602258,105.288913 69.6250645,104.847609 69.6250645,104.260043 L69.6502258,98.6567391 L69.6250645,93.003 C69.6250645,92.3902174 69.2602258,91.9766522 68.8199032,91.901 L67.8184839,91.756 C67.5983226,91.7307826 67.4284839,91.6084783 67.4284839,91.484913 C67.4284839,91.3386522 67.5983226,91.2894783 67.8184839,91.2894783 L74.703871,91.2894783 C77.8553226,91.2894783 80.7601935,93.5666087 80.7601935,98.2898261 C80.7601935,102.376304 78.5384516,105.973565 74.1427742,105.973565 Z" id="Fill-12" fill="#FFFFFE"></path>
                    <path d="M98.1944516,105.705 C98.1705484,105.851261 98.0233548,105.973565 97.8522581,105.973565 L87.963871,105.973565 C87.7437097,105.973565 87.5726129,105.92313 87.5726129,105.803348 C87.5726129,105.655826 87.7437097,105.557478 87.963871,105.508304 C88.4029355,105.411217 88.7199677,105.020348 88.7199677,104.407565 L88.745129,98.6075652 L88.7199677,93.003 C88.7199677,92.3902174 88.353871,91.9766522 87.9135484,91.901 L86.9133871,91.756 C86.6932258,91.7307826 86.522129,91.6084783 86.522129,91.484913 C86.522129,91.3386522 86.6932258,91.2894783 86.9133871,91.2894783 L97.6836774,91.2894783 C97.8522581,91.2894783 97.9503871,91.4130435 97.9503871,91.582 L98.1705484,94.9371739 C98.1944516,95.1565652 98.0963226,95.2801304 97.9755484,95.2801304 C97.8774194,95.2801304 97.754129,95.2044783 97.6836774,95.0090435 C96.8269355,92.8063043 96.2406774,92.2691739 94.2642581,92.2691739 L91.3807742,92.2691739 C91.065,92.2691739 90.771871,92.5377391 90.771871,92.8327826 L90.7467097,97.5055652 C90.7467097,97.603913 90.8196774,97.6770435 90.9178065,97.6770435 L95.5336452,97.556 C95.6795806,97.556 95.7777097,97.653087 95.7777097,97.7993478 L95.7777097,98.8282174 C95.7777097,98.9757391 95.6795806,99.0728261 95.5336452,99.0728261 L90.8926452,98.9492609 C90.7945161,98.9492609 90.7467097,99.0476087 90.7467097,99.1446957 L90.771871,104.555087 C90.771871,104.799696 90.9907742,104.99513 91.2360968,104.99513 L94.7272258,104.944696 C97.2672581,104.920739 97.7302258,103.74687 98.2435161,101.86313 C98.2913226,101.666435 98.4636774,101.54413 98.5857097,101.54413 C98.7316452,101.54413 98.8536774,101.691652 98.7819677,102.107739 L98.1944516,105.705" id="Fill-13" fill="#FFFFFE"></path>
                    <path d="M119.046871,91.756 L118.290774,91.901 C117.85171,91.9766522 117.485613,92.3902174 117.485613,92.9803043 L117.412645,98.6567391 L117.460452,105.92313 C117.460452,106.09587 117.362323,106.219435 117.215129,106.219435 L116.997484,106.219435 C116.874194,106.219435 116.776065,106.143783 116.704355,106.046696 L108.230032,94.8867391 C108.108,94.7404783 107.936903,94.8136087 107.936903,94.9611304 L108.157065,104.016696 C108.182226,104.99513 108.279097,105.288913 108.450194,105.45913 C108.597387,105.630609 108.767226,105.655826 108.767226,105.803348 C108.767226,105.92313 108.670355,105.973565 108.450194,105.973565 L104.933903,105.973565 C104.712484,105.973565 104.543903,105.92313 104.543903,105.803348 C104.543903,105.655826 104.738903,105.557478 104.933903,105.508304 L105.692516,105.362043 C106.129065,105.288913 106.472516,104.847609 106.496419,104.260043 L106.715323,95.2044783 L106.715323,93.1744783 C106.715323,92.7823478 106.595806,92.1216522 106.155484,91.9993478 L105.276097,91.7786957 C105.079839,91.7307826 104.835774,91.6084783 104.835774,91.4622174 C104.835774,91.3386522 105.006871,91.2894783 105.227032,91.2894783 L107.572065,91.2894783 C107.741903,91.2894783 107.936903,91.3386522 108.035032,91.484913 L115.653871,101.518913 C115.82371,101.739565 116.092935,101.641217 116.092935,101.420565 L116.116839,98.6567391 L116.043871,93.003 C116.043871,92.3902174 115.677774,91.9766522 115.23871,91.901 L114.359323,91.756 C114.139161,91.7055652 113.969323,91.6084783 113.969323,91.4622174 C113.969323,91.3386522 114.139161,91.2894783 114.359323,91.2894783 L119.046871,91.2894783 C119.26829,91.2894783 119.438129,91.3386522 119.438129,91.4622174 C119.438129,91.6084783 119.26829,91.7055652 119.046871,91.756" id="Fill-14" fill="#FFFFFE"></path>
                    <path d="M30.8389355,113.835087 C30.6917419,113.835087 30.5936129,113.663609 30.5458065,113.442957 L30.2778387,112.023217 C30.2023548,111.584435 29.7645484,111.216261 29.1782903,111.191043 L26.3212258,111.07 C26.150129,111.07 25.9802903,111.266696 25.9802903,111.510043 L25.955129,117.236913 L25.9802903,122.864174 C25.9802903,123.475696 26.345129,123.893043 26.7867097,123.964913 L27.786871,124.112435 C28.0057742,124.136391 28.176871,124.257435 28.176871,124.381 C28.176871,124.526 28.0057742,124.576435 27.786871,124.576435 L22.1230645,124.576435 C21.9029032,124.576435 21.7318065,124.526 21.7318065,124.406217 C21.7318065,124.257435 21.9029032,124.136391 22.1230645,124.112435 L23.1232258,123.964913 C23.5622903,123.893043 23.9283871,123.475696 23.9283871,122.864174 L23.9535484,117.236913 L23.9283871,111.510043 C23.9283871,111.266696 23.7572903,111.07 23.5874516,111.07 L20.7316452,111.191043 C20.1453871,111.216261 19.7050645,111.584435 19.6320968,112.023217 L19.362871,113.442957 C19.3150645,113.663609 19.2169355,113.835087 19.0949032,113.835087 C18.9489677,113.835087 18.8999032,113.663609 18.8999032,113.442957 L18.8999032,110.189913 C18.8999032,109.994478 19.0697419,109.89487 19.2647419,109.89487 L30.6426774,109.89487 C30.8389355,109.89487 31.0087742,109.994478 31.0087742,110.189913 L31.0087742,113.442957 C31.0087742,113.663609 30.9609677,113.835087 30.8389355,113.835087" id="Fill-15" fill="#FFFFFE"></path>
                    <path d="M48.8808387,124.576435 L43.7039032,124.576435 C43.4837419,124.576435 43.3139032,124.526 43.3139032,124.406217 C43.3139032,124.257435 43.5089032,124.160348 43.7039032,124.112435 L44.2171935,123.964913 C44.6575161,123.841348 45.0236129,123.475696 45.0236129,122.864174 L45.0475161,117.675696 C45.0475161,117.578609 44.9493871,117.505478 44.8525161,117.505478 L38.3080645,117.505478 C38.2099355,117.505478 38.1382258,117.578609 38.1382258,117.675696 L38.162129,122.864174 C38.162129,123.450478 38.5282258,123.893043 38.9685484,123.964913 L39.9699677,124.112435 C40.188871,124.136391 40.3599677,124.257435 40.3599677,124.381 C40.3599677,124.526 40.188871,124.576435 39.9699677,124.576435 L34.3049032,124.576435 C34.0847419,124.576435 33.9149032,124.526 33.9149032,124.406217 C33.9149032,124.257435 34.0847419,124.136391 34.3049032,124.112435 L35.3063226,123.964913 C35.7453871,123.893043 36.1127419,123.475696 36.1127419,122.864174 L36.1353871,117.211696 L36.1127419,111.60713 C36.1127419,110.995609 35.7453871,110.582043 35.3063226,110.506391 L34.3049032,110.36013 C34.0847419,110.334913 33.9149032,110.21387 33.9149032,110.091565 C33.9149032,109.944043 34.0847419,109.89487 34.3049032,109.89487 L39.9699677,109.89487 C40.188871,109.89487 40.3599677,109.944043 40.3599677,110.067609 C40.3599677,110.21387 40.188871,110.334913 39.9699677,110.36013 L38.9685484,110.506391 C38.5282258,110.582043 38.162129,111.020826 38.162129,111.60713 L38.1382258,116.306391 C38.1382258,116.404739 38.2099355,116.47787 38.3080645,116.47787 L44.8751613,116.47787 C44.9732903,116.47787 45.0475161,116.404739 45.0475161,116.306391 L45.0236129,111.60713 C45.0236129,110.995609 44.6575161,110.582043 44.2171935,110.506391 L43.2157742,110.36013 C42.9956129,110.334913 42.8257742,110.21387 42.8257742,110.091565 C42.8257742,109.944043 42.9956129,109.89487 43.2157742,109.89487 L48.8808387,109.89487 C49.0997419,109.89487 49.2708387,109.944043 49.2708387,110.067609 C49.2708387,110.21387 49.0997419,110.334913 48.8808387,110.36013 L47.8794194,110.506391 C47.4403548,110.582043 47.073,111.020826 47.073,111.60713 L47.0478387,117.211696 L47.073,122.864174 C47.073,123.450478 47.4403548,123.893043 47.8794194,123.964913 L48.8808387,124.112435 C49.0997419,124.136391 49.2708387,124.257435 49.2708387,124.381 C49.2708387,124.526 49.0997419,124.576435 48.8808387,124.576435" id="Fill-16" fill="#FFFFFE"></path>
                    <path d="M59.1353226,110.653913 C55.8379355,110.653913 55.3007419,114.103652 55.3007419,116.917913 C55.3007419,119.635087 55.6429355,123.819913 59.3554839,123.819913 C62.6490968,123.819913 63.1875484,120.368913 63.1875484,117.554652 C63.1875484,114.838739 62.8453548,110.653913 59.1353226,110.653913 Z M59.2082903,124.822304 C54.5698065,124.822304 53.0802581,121.346087 53.0802581,117.310043 C53.0802581,113.393783 54.7144839,109.651522 59.28,109.651522 C63.921,109.651522 65.4092903,113.125217 65.4092903,117.162522 C65.4092903,121.077522 63.7725484,124.822304 59.2082903,124.822304 Z" id="Fill-17" fill="#FFFFFE"></path>
                    <path d="M87.7235806,124.576435 L82.3277419,124.576435 C82.1075806,124.576435 81.9125806,124.526 81.9125806,124.406217 C81.9125806,124.257435 82.1075806,124.160348 82.3277419,124.112435 L83.0863548,123.964913 C83.5241613,123.893043 83.8902581,123.475696 83.8902581,122.864174 L83.9154194,117.211696 L83.9154194,113.835087 C83.9154194,113.590478 83.597129,113.566522 83.5002581,113.785913 L78.3006774,123.99013 C78.2025484,124.185565 77.9823871,124.185565 77.8855161,123.99013 L73.0017097,113.738 C72.9287419,113.566522 72.7085806,113.663609 72.7085806,113.80987 L72.9287419,122.620826 C72.9539032,123.598 73.0507742,123.893043 73.221871,124.062 C73.3678065,124.233478 73.5401613,124.257435 73.5401613,124.406217 C73.5401613,124.526 73.4420323,124.576435 73.221871,124.576435 L69.6829355,124.576435 C69.4615161,124.576435 69.2904194,124.526 69.2904194,124.406217 C69.2904194,124.257435 69.4615161,124.160348 69.6829355,124.112435 L70.4390323,123.964913 C70.8768387,123.893043 71.2190323,123.450478 71.2441935,122.864174 L71.487,114.055739 L71.487,111.60713 C71.487,110.995609 71.1221613,110.555565 70.6818387,110.506391 L69.6074516,110.36013 C69.3872903,110.334913 69.2174516,110.21387 69.2174516,110.067609 C69.2174516,109.944043 69.3872903,109.89487 69.6074516,109.89487 L73.0746774,109.89487 C73.3439032,109.89487 73.515,110.018435 73.611871,110.237826 L78.3006774,120.466 C78.3975484,120.661435 78.6416129,120.661435 78.7384839,120.466 L83.7694839,110.237826 C83.8902581,110.018435 84.0122903,109.89487 84.2802581,109.89487 L86.1849677,109.89487 C86.405129,109.89487 86.5032581,109.944043 86.5032581,110.067609 C86.5032581,110.21387 86.3321613,110.263043 86.1849677,110.408043 C86.015129,110.582043 85.8918387,110.874565 85.8918387,111.854261 L85.8691935,117.211696 L85.8918387,122.864174 C85.8918387,123.475696 86.2830968,123.893043 86.7234194,123.964913 L87.7235806,124.112435 C87.9437419,124.136391 88.1148387,124.257435 88.1148387,124.406217 C88.1148387,124.526 87.9437419,124.576435 87.7235806,124.576435" id="Fill-18" fill="#FFFFFE"></path>
                    <path d="M97.3691613,112.513696 C97.3188387,112.39013 97.1729032,112.39013 97.1225806,112.513696 L94.9008387,119.096696 C94.8530323,119.217739 94.926,119.341304 95.0731935,119.341304 L99.663871,119.341304 C99.7833871,119.341304 99.858871,119.217739 99.8085484,119.096696 L97.3691613,112.513696 Z M105.010645,124.576435 L99.9066774,124.576435 C99.6852581,124.576435 99.5166774,124.526 99.5166774,124.406217 C99.5166774,124.257435 99.6852581,124.160348 99.9066774,124.112435 L100.664032,123.964913 C100.981065,123.893043 101.25029,123.696348 101.25029,123.329435 C101.25029,123.256304 101.226387,123.157957 101.199968,123.108783 L100.272774,120.540391 C100.22371,120.418087 100.101677,120.344957 99.9796452,120.344957 L94.7058387,120.344957 C94.5599032,120.344957 94.4617742,120.418087 94.4127097,120.540391 L93.4616129,123.450478 C93.4112903,123.624478 93.3634839,123.819913 93.3634839,123.866565 C93.3634839,123.99013 93.4112903,124.112435 93.5345806,124.185565 C93.6566129,124.257435 93.7295806,124.30913 93.7295806,124.406217 C93.7295806,124.552478 93.5345806,124.576435 93.3144194,124.576435 L90.5076774,124.576435 C90.2875161,124.576435 90.1164194,124.526 90.1164194,124.406217 C90.1164194,124.257435 90.3126774,124.160348 90.5076774,124.112435 L91.0209677,123.964913 C91.2876774,123.893043 91.5808065,123.721565 91.6789355,123.450478 L96.8546129,109.89487 C96.9024194,109.723391 97.2207097,109.651522 97.5377419,109.651522 C97.8560323,109.651522 98.1743226,109.748609 98.2472903,109.89487 L103.690935,123.475696 C103.814226,123.769478 104.080935,123.940957 104.348903,123.99013 L105.010645,124.112435 C105.205645,124.136391 105.400645,124.257435 105.400645,124.406217 C105.400645,124.526 105.205645,124.576435 105.010645,124.576435 Z" id="Fill-19" fill="#FFFFFE"></path>
                    <path d="M113.042129,124.822304 C111.210387,124.822304 110.086935,124.479348 108.719419,124.381 C108.549581,124.381 108.378484,124.160348 108.378484,124.062 L107.988484,120.269304 C107.988484,120.147 108.03629,120.002 108.159581,120.002 C108.256452,120.002 108.328161,120.07387 108.378484,120.197435 C109.356,123.011696 110.793968,123.793435 113.259774,123.793435 C114.944323,123.793435 116.387323,123.034391 116.387323,121.370043 C116.387323,117.114609 108.134419,118.50913 108.134419,113.542565 C108.134419,111.07 109.891935,109.651522 112.333839,109.651522 C114.531677,109.651522 115.702935,109.994478 117.04529,110.091565 C117.217645,110.091565 117.362323,110.21387 117.362323,110.408043 L117.387484,114.202 C117.387484,114.374739 117.289355,114.471826 117.191226,114.471826 C117.119516,114.471826 117.022645,114.397435 116.997484,114.27513 C116.435129,111.632348 115.042452,110.727043 112.381645,110.727043 C110.990226,110.727043 109.915839,111.389 109.915839,112.661217 C109.915839,116.598913 118.143581,115.157739 118.143581,120.661435 C118.143581,123.672391 115.801065,124.822304 113.042129,124.822304" id="Fill-20" fill="#FFFFFE"></path>
                    <path d="M21.3355161,133.614348 C21.3153871,133.55887 21.2474516,133.55887 21.2260645,133.614348 L20.2158387,136.60387 C20.1944516,136.658087 20.2284194,136.713565 20.2938387,136.713565 L22.3784516,136.713565 C22.4338065,136.713565 22.4665161,136.658087 22.4463871,136.60387 L21.3355161,133.614348 Z M24.8065161,139.091565 L22.4904194,139.091565 C22.3885161,139.091565 22.3130323,139.071391 22.3130323,139.014652 C22.3130323,138.947826 22.3885161,138.903696 22.4904194,138.879739 L22.8326129,138.814174 C22.9772903,138.78013 23.0993226,138.69187 23.0993226,138.524174 C23.0993226,138.492652 23.0892581,138.447261 23.0779355,138.424565 L22.6552258,137.258261 C22.6338387,137.202783 22.5784839,137.168739 22.521871,137.168739 L20.1277742,137.168739 C20.0623548,137.168739 20.0170645,137.202783 19.9944194,137.258261 L19.5629032,138.582174 C19.5402581,138.657826 19.518871,138.747348 19.518871,138.770043 C19.518871,138.825522 19.5402581,138.879739 19.5956129,138.915043 C19.6522258,138.947826 19.6836774,138.969261 19.6836774,139.014652 C19.6836774,139.081478 19.5956129,139.091565 19.4962258,139.091565 L18.2205484,139.091565 C18.1211613,139.091565 18.0431613,139.071391 18.0431613,139.014652 C18.0431613,138.947826 18.1324839,138.903696 18.2205484,138.879739 L18.4532903,138.814174 C18.5765806,138.78013 18.7099355,138.703217 18.7539677,138.582174 L21.1040323,132.424087 C21.1254194,132.348435 21.2713548,132.31313 21.4147742,132.31313 C21.5581935,132.31313 21.7016129,132.358522 21.7355806,132.424087 L24.2089355,138.592261 C24.2630323,138.725913 24.3863226,138.804087 24.5058387,138.825522 L24.8065161,138.879739 C24.8958387,138.892348 24.9839032,138.947826 24.9839032,139.014652 C24.9839032,139.071391 24.8958387,139.091565 24.8065161,139.091565 Z" id="Fill-21" fill="#FFFFFE"></path>
                    <path d="M34.6634516,132.503522 C34.6634516,132.448043 34.5854516,132.424087 34.4860645,132.424087 L32.3574194,132.424087 C32.2567742,132.424087 32.1800323,132.448043 32.1800323,132.503522 C32.1800323,132.570348 32.2567742,132.614478 32.3574194,132.635913 L32.7549677,132.704 C32.9562581,132.735522 33.1210645,132.924652 33.1210645,133.203304 L33.1550323,135.767913 L33.1437097,137.025 C33.1437097,137.124609 33.0216774,137.168739 32.9449355,137.06913 L29.4852581,132.512348 C29.4412258,132.448043 29.3519032,132.424087 29.2751613,132.424087 L28.2108387,132.424087 C28.1101935,132.424087 28.0334516,132.448043 28.0334516,132.503522 C28.0334516,132.570348 28.1441613,132.624565 28.2322258,132.647261 L28.6322903,132.74813 C28.8310645,132.803609 28.8876774,133.102435 28.8876774,133.280217 L28.8876774,134.203174 L28.7857742,138.31487 C28.7757097,138.582174 28.6209677,138.78013 28.4209355,138.814174 L28.0774839,138.879739 C27.9894194,138.903696 27.9000968,138.947826 27.9000968,139.014652 C27.9000968,139.071391 27.9768387,139.091565 28.0774839,139.091565 L29.6739677,139.091565 C29.7733548,139.091565 29.8173871,139.071391 29.8173871,139.014652 C29.8173871,138.947826 29.7393871,138.937739 29.6739677,138.859565 C29.5959677,138.78013 29.5519355,138.647739 29.5406129,138.202652 L29.4412258,134.090957 C29.4412258,134.025391 29.5192258,133.991348 29.5745806,134.059435 L33.4204839,139.12687 C33.4544516,139.171 33.4984839,139.202522 33.5538387,139.202522 L33.6544839,139.202522 C33.7211613,139.202522 33.7651935,139.147043 33.7651935,139.071391 L33.7425484,135.767913 L33.7765161,133.190696 C33.7765161,132.924652 33.9425806,132.735522 34.1413548,132.704 L34.4860645,132.635913 C34.5854516,132.614478 34.6634516,132.570348 34.6634516,132.503522" id="Fill-22" fill="#FFFFFE"></path>
                    <path d="M41.3488065,132.869174 L40.3951935,132.869174 C40.2517742,132.869174 40.0844516,132.98013 40.0844516,133.12513 L40.0743871,135.767913 L40.0844516,138.091696 C40.0844516,138.502739 40.4606129,138.657826 41.1047419,138.657826 C42.8106774,138.657826 43.1667097,136.915304 43.1667097,135.548522 C43.1667097,133.524826 42.3124839,132.869174 41.3488065,132.869174 Z M41.204129,139.091565 L38.4451935,139.091565 C38.3432903,139.091565 38.2678065,139.071391 38.2678065,139.014652 C38.2678065,138.947826 38.355871,138.903696 38.4451935,138.879739 L38.7873871,138.814174 C38.9874194,138.78013 39.1534839,138.582174 39.1534839,138.31487 L39.1648065,135.767913 L39.1534839,133.203304 C39.1534839,132.924652 38.9874194,132.735522 38.7873871,132.704 L38.3332258,132.635913 C38.2338387,132.624565 38.1558387,132.570348 38.1558387,132.512348 C38.1558387,132.448043 38.2338387,132.424087 38.3332258,132.424087 L41.4582581,132.424087 C42.8899355,132.424087 44.2083871,133.458 44.2083871,135.604 C44.2083871,137.458739 43.1994194,139.091565 41.204129,139.091565 Z" id="Fill-23" fill="#FFFFFE"></path>
                    <path d="M58.4886774,138.859565 C58.4886774,138.947826 58.3993548,138.991957 58.323871,139.003304 C57.9011613,139.047435 57.1702258,139.202522 56.5487419,139.202522 C54.9975484,139.202522 53.6325484,138.114391 53.6325484,135.747739 C53.6325484,133.624435 54.9082258,132.31313 56.4267097,132.31313 C57.0469355,132.31313 57.7023871,132.424087 58.323871,132.468217 C58.3892903,132.468217 58.4547097,132.557739 58.4547097,132.614478 L58.4547097,134.336826 C58.4547097,134.436435 58.4106774,134.491913 58.3679032,134.491913 C58.3112903,134.491913 58.2798387,134.447783 58.2559355,134.368348 C57.9904839,133.26887 57.5589677,132.779652 56.4493548,132.779652 C54.8742581,132.779652 54.6868065,134.74787 54.6868065,135.925522 C54.6868065,137.135957 55.0629677,138.736 56.5713871,138.736 C57.8130968,138.736 58.1024516,138.235435 58.3553226,137.202783 C58.3679032,137.135957 58.4232581,137.103174 58.4672903,137.103174 C58.5226452,137.103174 58.5666774,137.135957 58.5666774,137.235565 L58.4886774,138.859565" id="Fill-24" fill="#FFFFFE"></path>
                    <path d="M65.6407742,132.769565 C64.1436774,132.769565 63.8996129,134.336826 63.8996129,135.614087 C63.8996129,136.847217 64.0556129,138.747348 65.7401613,138.747348 C67.236,138.747348 67.4813226,137.182609 67.4813226,135.902826 C67.4813226,134.668435 67.3253226,132.769565 65.6407742,132.769565 Z M65.6747419,139.202522 C63.5674839,139.202522 62.8906452,137.626435 62.8906452,135.79187 C62.8906452,134.015304 63.6329032,132.31313 65.7061935,132.31313 C67.8134516,132.31313 68.4890323,133.891739 68.4890323,135.723783 C68.4890323,137.50287 67.7480323,139.202522 65.6747419,139.202522 Z" id="Fill-25" fill="#FFFFFE"></path>
                    <path d="M80.7853548,139.091565 L78.3346452,139.091565 C78.2352581,139.091565 78.1459355,139.071391 78.1459355,139.014652 C78.1459355,138.947826 78.2352581,138.903696 78.3346452,138.879739 L78.6780968,138.814174 C78.8793871,138.78013 79.0441935,138.592261 79.0441935,138.31487 L79.0542581,135.747739 L79.0542581,134.214522 C79.0542581,134.103565 78.9108387,134.090957 78.8668065,134.191826 L76.5054194,138.825522 C76.4613871,138.915043 76.362,138.915043 76.3179677,138.825522 L74.1,134.16913 C74.0672903,134.090957 73.9666452,134.136348 73.9666452,134.203174 L74.0672903,138.202652 C74.0773548,138.647739 74.1226452,138.78013 74.1993871,138.859565 C74.2660645,138.937739 74.3440645,138.947826 74.3440645,139.014652 C74.3440645,139.071391 74.3000323,139.091565 74.1993871,139.091565 L72.5915806,139.091565 C72.4921935,139.091565 72.4141935,139.071391 72.4141935,139.014652 C72.4141935,138.947826 72.4921935,138.903696 72.5915806,138.879739 L72.9362903,138.814174 C73.1350645,138.78013 73.2910645,138.582174 73.3023871,138.31487 L73.4118387,134.31287 L73.4118387,133.203304 C73.4118387,132.924652 73.2470323,132.724174 73.047,132.704 L72.5576129,132.635913 C72.4582258,132.624565 72.3802258,132.570348 72.3802258,132.503522 C72.3802258,132.448043 72.4582258,132.424087 72.5576129,132.424087 L74.1327097,132.424087 C74.2547419,132.424087 74.3327419,132.480826 74.3780323,132.580435 L76.5054194,137.226739 C76.5507097,137.315 76.6601613,137.315 76.7041935,137.226739 L78.9888387,132.580435 C79.0441935,132.480826 79.0995484,132.424087 79.2215806,132.424087 L80.085871,132.424087 C80.1877742,132.424087 80.2318065,132.448043 80.2318065,132.503522 C80.2318065,132.570348 80.1538065,132.591783 80.085871,132.65987 C80.0103871,132.735522 79.9525161,132.869174 79.9525161,133.313 L79.9424516,135.747739 L79.9525161,138.31487 C79.9525161,138.592261 80.1299032,138.78013 80.3311935,138.814174 L80.7853548,138.879739 C80.8847419,138.892348 80.9627419,138.947826 80.9627419,139.014652 C80.9627419,139.071391 80.8847419,139.091565 80.7853548,139.091565" id="Fill-26" fill="#FFFFFE"></path>
                    <path d="M87.2593548,132.869174 L86.6504516,132.869174 C86.5070323,132.869174 86.3736774,132.98013 86.3736774,133.12513 L86.3736774,135.624174 C86.3736774,135.723783 86.483129,135.825913 86.5825161,135.825913 L87.1486452,135.825913 C88.1802581,135.825913 89.0231613,135.524565 89.0231613,134.247304 C89.0231613,133.302913 88.5123871,132.869174 87.2593548,132.869174 Z M87.2933226,136.247043 L86.5825161,136.247043 C86.483129,136.247043 86.3736774,136.336565 86.3736774,136.436174 L86.3837419,138.31487 C86.3837419,138.582174 86.561129,138.78013 86.7599032,138.814174 L87.1046129,138.879739 C87.1939355,138.903696 87.282,138.947826 87.282,139.014652 C87.282,139.071391 87.204,139.091565 87.1046129,139.091565 L85.1093226,139.091565 C85.0099355,139.091565 84.9319355,139.071391 84.9319355,139.014652 C84.9319355,138.947826 85.0099355,138.903696 85.1093226,138.879739 C85.3080968,138.835609 85.4515161,138.657826 85.4515161,138.380435 L85.4653548,135.64813 L85.4515161,133.190696 C85.4515161,132.913304 85.2879677,132.735522 85.0866774,132.704 L84.6312581,132.635913 C84.531871,132.624565 84.453871,132.570348 84.453871,132.512348 C84.453871,132.448043 84.531871,132.424087 84.6312581,132.424087 L87.6581613,132.424087 C88.9225161,132.424087 90.0082258,132.924652 90.0082258,134.280087 C90.0082258,135.392174 89.1225484,136.247043 87.2933226,136.247043 Z" id="Fill-27" fill="#FFFFFE"></path>
                    <path d="M95.9072903,133.614348 C95.8859032,133.55887 95.8192258,133.55887 95.7965806,133.614348 L94.7876129,136.60387 C94.7662258,136.658087 94.7976774,136.713565 94.8656129,136.713565 L96.9489677,136.713565 C97.0043226,136.713565 97.0382903,136.658087 97.0169032,136.60387 L95.9072903,133.614348 Z M99.3782903,139.091565 L97.0609355,139.091565 C96.9602903,139.091565 96.8848065,139.071391 96.8848065,139.014652 C96.8848065,138.947826 96.9602903,138.903696 97.0609355,138.879739 L97.403129,138.814174 C97.5478065,138.78013 97.6710968,138.69187 97.6710968,138.524174 C97.6710968,138.492652 97.6585161,138.447261 97.6484516,138.424565 L97.2257419,137.258261 C97.2056129,137.202783 97.1502581,137.168739 97.0936452,137.168739 L94.6982903,137.168739 C94.632871,137.168739 94.5888387,137.202783 94.5661935,137.258261 L94.1346774,138.582174 C94.1107742,138.657826 94.0893871,138.747348 94.0893871,138.770043 C94.0893871,138.825522 94.1107742,138.879739 94.166129,138.915043 C94.2227419,138.947826 94.2541935,138.969261 94.2541935,139.014652 C94.2541935,139.081478 94.166129,139.091565 94.0667419,139.091565 L92.7923226,139.091565 C92.6929355,139.091565 92.6149355,139.071391 92.6149355,139.014652 C92.6149355,138.947826 92.7042581,138.903696 92.7923226,138.879739 L93.0238065,138.814174 C93.1470968,138.78013 93.2804516,138.703217 93.3244839,138.582174 L95.6745484,132.424087 C95.6959355,132.348435 95.841871,132.31313 95.9852903,132.31313 C96.1287097,132.31313 96.272129,132.358522 96.3073548,132.424087 L98.7794516,138.592261 C98.8348065,138.725913 98.9568387,138.804087 99.0776129,138.825522 L99.3782903,138.879739 C99.4676129,138.892348 99.5556774,138.947826 99.5556774,139.014652 C99.5556774,139.071391 99.4676129,139.091565 99.3782903,139.091565 Z" id="Fill-28" fill="#FFFFFE"></path>
                    <path d="M109.233968,132.503522 C109.233968,132.448043 109.157226,132.424087 109.057839,132.424087 L106.926677,132.424087 C106.82729,132.424087 106.751806,132.448043 106.751806,132.503522 C106.751806,132.570348 106.82729,132.614478 106.926677,132.635913 L107.326742,132.704 C107.526774,132.735522 107.692839,132.924652 107.692839,133.203304 L107.725548,135.767913 L107.715484,137.025 C107.715484,137.124609 107.592194,137.168739 107.514194,137.06913 L104.057032,132.512348 C104.013,132.448043 103.922419,132.424087 103.845677,132.424087 L102.780097,132.424087 C102.68071,132.424087 102.605226,132.448043 102.605226,132.503522 C102.605226,132.570348 102.715935,132.624565 102.804,132.647261 L103.202806,132.74813 C103.401581,132.803609 103.455677,133.102435 103.455677,133.280217 L103.455677,134.203174 L103.357548,138.31487 C103.346226,138.582174 103.191484,138.78013 102.991452,138.814174 L102.649258,138.879739 C102.559935,138.903696 102.471871,138.947826 102.471871,139.014652 C102.471871,139.071391 102.548613,139.091565 102.649258,139.091565 L104.244484,139.091565 C104.343871,139.091565 104.389161,139.071391 104.389161,139.014652 C104.389161,138.947826 104.309903,138.937739 104.244484,138.859565 C104.166484,138.78013 104.122452,138.647739 104.112387,138.202652 L104.013,134.090957 C104.013,134.025391 104.088484,133.991348 104.145097,134.059435 L107.992258,139.12687 C108.024968,139.171 108.070258,139.202522 108.124355,139.202522 L108.223742,139.202522 C108.291677,139.202522 108.33571,139.147043 108.33571,139.071391 L108.314323,135.767913 L108.347032,133.190696 C108.347032,132.924652 108.514355,132.735522 108.713129,132.704 L109.057839,132.635913 C109.157226,132.614478 109.233968,132.570348 109.233968,132.503522" id="Fill-29" fill="#FFFFFE"></path>
                    <path d="M118.526032,132.669957 C118.402742,132.715348 118.259323,132.823783 118.191387,132.936 L116.240129,136.059174 C116.196097,136.124739 116.162129,136.202913 116.162129,136.291174 L116.175968,138.31487 C116.175968,138.592261 116.340774,138.78013 116.540806,138.814174 L116.994968,138.879739 C117.094355,138.892348 117.173613,138.947826 117.173613,139.003304 C117.173613,139.071391 117.094355,139.091565 116.994968,139.091565 L114.423484,139.091565 C114.321581,139.091565 114.246097,139.071391 114.246097,139.014652 C114.246097,138.947826 114.321581,138.892348 114.423484,138.879739 L114.876387,138.814174 C115.076419,138.78013 115.243742,138.592261 115.243742,138.31487 L115.253806,136.503 C115.253806,136.414739 115.232419,136.336565 115.188387,136.271 L113.147806,133.146565 C112.969161,132.869174 112.793032,132.680043 112.449581,132.647261 L112.337613,132.635913 C112.249548,132.624565 112.161484,132.570348 112.161484,132.503522 C112.161484,132.448043 112.238226,132.424087 112.337613,132.424087 L114.732968,132.424087 C114.832355,132.424087 114.911613,132.448043 114.911613,132.512348 C114.911613,132.580435 114.832355,132.614478 114.732968,132.635913 C114.644903,132.647261 114.355548,132.724174 114.290129,132.759478 C114.222194,132.792261 114.178161,132.859087 114.178161,132.936 C114.178161,133.002826 114.212129,133.057043 114.222194,133.081 L115.775903,135.624174 C115.808613,135.679652 115.874032,135.679652 115.909258,135.624174 L117.193742,133.313 C117.237774,133.236087 117.273,133.115043 117.273,133.025522 C117.273,132.813696 117.028935,132.691391 116.827645,132.635913 C116.739581,132.614478 116.651516,132.570348 116.651516,132.503522 C116.651516,132.448043 116.728258,132.424087 116.817581,132.424087 L118.614097,132.424087 C118.713484,132.424087 118.791484,132.448043 118.791484,132.503522 C118.791484,132.580435 118.713484,132.614478 118.526032,132.669957" id="Fill-30" fill="#FFFFFE"></path>
                    <polygon id="Fill-31" fill="#FFFFFE" points="18.8835484 128.985696 119.056935 128.985696 119.056935 128.34013 18.8835484 128.34013"></polygon>
                </g>
            </g>
        </g>
    </g>
</svg>