<?xml version="1.0" encoding="UTF-8"?>
<svg width="40px" height="40px" viewBox="0 0 40 40" version="1.1" xmlns="http://www.w3.org/2000/svg" xmlns:xlink="http://www.w3.org/1999/xlink">
    <!-- Generator: sketchtool 52.5 (67469) - http://www.bohemiancoding.com/sketch -->
    <title>72940841-3602-49C6-AB42-FE9FC1C7C3EC</title>
    <desc>Created with sketchtool.</desc>
    <g id="XX.00.-Landing---Index-Investing" stroke="none" stroke-width="1" fill="none" fill-rule="evenodd">
        <g id="XX.00.-Landing---Index-Investing-v3.4" transform="translate(-338.000000, -3398.000000)">
            <g id="Reviews/Desktop" transform="translate(266.000000, 3310.000000)">
                <g id="3-Reviews" transform="translate(64.000000, 80.000000)">
                    <g id="Review">
                        <g id="quote" transform="translate(8.000000, 8.000000)">
                            <rect id="Rectangle" fill="#FFFFFF" x="0" y="0" width="40" height="40"></rect>
                            <path d="M25.64,29.176 C22.8666528,29.176 21.48,27.5973491 21.48,24.44 C21.48,20.6853146 23.9333088,16.2053594 28.84,11 L31.72,13.432 C29.4586554,16.4613485 28.328,18.7226592 28.328,20.216 C28.328,20.4720013 28.4026659,20.7599984 28.552,21.08 C28.7013341,21.4000016 28.8826656,21.7839978 29.096,22.232 C29.3093344,22.6800022 29.4799994,23.170664 29.608,23.704 C29.7360006,24.237336 29.8,24.7386643 29.8,25.208 C29.8,26.2320051 29.4160038,27.1493293 28.648,27.96 C27.8799962,28.7706707 26.8773395,29.176 25.64,29.176 Z M13.16,29.176 C10.3866528,29.176 9,27.5973491 9,24.44 C9,20.6853146 11.4533088,16.2053594 16.36,11 L19.24,13.432 C16.9786554,16.4613485 15.848,18.7226592 15.848,20.216 C15.848,20.4720013 15.9226659,20.7599984 16.072,21.08 C16.2213341,21.4000016 16.4026656,21.7839978 16.616,22.232 C16.8293344,22.6800022 16.9999994,23.170664 17.128,23.704 C17.2560006,24.237336 17.32,24.7386643 17.32,25.208 C17.32,26.2320051 16.9360038,27.1493293 16.168,27.96 C15.3999962,28.7706707 14.3973395,29.176 13.16,29.176 Z" id="“" fill="#E5E0D6"></path>
                        </g>
                    </g>
                </g>
            </g>
        </g>
    </g>
</svg>